<mxfile host="app.diagrams.net" modified="2022-09-28T20:01:54.232Z" agent="5.0 (Windows NT 10.0; Win64; x64) AppleWebKit/537.36 (KHTML, like Gecko) Chrome/105.0.0.0 Safari/537.36" etag="-2z9Xtn5u8Jvz-DxPNWO" version="20.3.7" type="github" pages="2">
  <diagram id="ORDFwmXIXseVwWkwiaNf" name="Page-1">
    <mxGraphModel dx="609" dy="581" grid="1" gridSize="10" guides="1" tooltips="1" connect="1" arrows="1" fold="1" page="1" pageScale="1" pageWidth="850" pageHeight="1100" math="0" shadow="0">
      <root>
        <mxCell id="0" />
        <mxCell id="1" parent="0" />
        <mxCell id="QshrlUQndgBQl6B-oCbw-1" value="&lt;b&gt;Game&lt;/b&gt;" style="rounded=0;whiteSpace=wrap;html=1;" parent="1" vertex="1">
          <mxGeometry x="260" y="120" width="120" height="60" as="geometry" />
        </mxCell>
        <mxCell id="QshrlUQndgBQl6B-oCbw-2" value="&lt;b&gt;Header&lt;/b&gt;&lt;br&gt;&lt;br&gt;- Title&lt;br&gt;- start new game button&lt;br&gt;-score?&lt;br&gt;-timer?&lt;br&gt;" style="rounded=0;whiteSpace=wrap;html=1;align=left;verticalAlign=top;" parent="1" vertex="1">
          <mxGeometry x="170" y="200" width="120" height="170" as="geometry" />
        </mxCell>
        <mxCell id="QshrlUQndgBQl6B-oCbw-3" value="Card Display&lt;br&gt;&lt;br&gt;&lt;span style=&quot;font-weight: normal;&quot;&gt;- 4 x 4?&lt;/span&gt;" style="rounded=0;whiteSpace=wrap;html=1;verticalAlign=top;align=left;fontStyle=1" parent="1" vertex="1">
          <mxGeometry x="350" y="200" width="120" height="60" as="geometry" />
        </mxCell>
        <mxCell id="QshrlUQndgBQl6B-oCbw-4" value="Cards&lt;br&gt;&lt;br&gt;&lt;span style=&quot;font-weight: normal;&quot;&gt;- 4 sets of four cards for easier matching?&lt;/span&gt;" style="rounded=0;whiteSpace=wrap;html=1;fontStyle=1;align=left;verticalAlign=top;" parent="1" vertex="1">
          <mxGeometry x="440" y="280" width="120" height="80" as="geometry" />
        </mxCell>
        <mxCell id="QshrlUQndgBQl6B-oCbw-5" value="&lt;b&gt;Needs&lt;br&gt;&lt;br&gt;- &lt;/b&gt;card set&lt;br&gt;- title image?&lt;br&gt;- how to save&amp;nbsp; &amp;nbsp; &amp;nbsp; matched cards (card-level state or higher?)&lt;br&gt;- persistence or new game on full page reload" style="rounded=0;whiteSpace=wrap;html=1;align=left;verticalAlign=top;" parent="1" vertex="1">
          <mxGeometry x="30" y="200" width="120" height="330" as="geometry" />
        </mxCell>
        <mxCell id="QshrlUQndgBQl6B-oCbw-6" value="" style="endArrow=none;html=1;rounded=0;entryX=0.25;entryY=1;entryDx=0;entryDy=0;exitX=0.75;exitY=0;exitDx=0;exitDy=0;" parent="1" source="QshrlUQndgBQl6B-oCbw-2" target="QshrlUQndgBQl6B-oCbw-1" edge="1">
          <mxGeometry width="50" height="50" relative="1" as="geometry">
            <mxPoint x="300" y="390" as="sourcePoint" />
            <mxPoint x="350" y="340" as="targetPoint" />
          </mxGeometry>
        </mxCell>
        <mxCell id="QshrlUQndgBQl6B-oCbw-7" value="" style="endArrow=none;html=1;rounded=0;entryX=0.75;entryY=1;entryDx=0;entryDy=0;exitX=0.25;exitY=0;exitDx=0;exitDy=0;" parent="1" source="QshrlUQndgBQl6B-oCbw-3" target="QshrlUQndgBQl6B-oCbw-1" edge="1">
          <mxGeometry width="50" height="50" relative="1" as="geometry">
            <mxPoint x="300" y="390" as="sourcePoint" />
            <mxPoint x="350" y="340" as="targetPoint" />
          </mxGeometry>
        </mxCell>
        <mxCell id="QshrlUQndgBQl6B-oCbw-8" value="" style="endArrow=none;html=1;rounded=0;entryX=0.75;entryY=1;entryDx=0;entryDy=0;exitX=0.25;exitY=0;exitDx=0;exitDy=0;" parent="1" source="QshrlUQndgBQl6B-oCbw-4" target="QshrlUQndgBQl6B-oCbw-3" edge="1">
          <mxGeometry width="50" height="50" relative="1" as="geometry">
            <mxPoint x="300" y="390" as="sourcePoint" />
            <mxPoint x="350" y="340" as="targetPoint" />
          </mxGeometry>
        </mxCell>
        <mxCell id="QshrlUQndgBQl6B-oCbw-9" value="&lt;b style=&quot;text-align: center;&quot;&gt;Thoughts/Questions&lt;/b&gt;&lt;br style=&quot;text-align: center;&quot;&gt;&lt;br style=&quot;text-align: center;&quot;&gt;&lt;span style=&quot;text-align: center;&quot;&gt;- Sidebar instead of keeping stuff in header?&lt;/span&gt;" style="rounded=0;whiteSpace=wrap;html=1;align=left;verticalAlign=top;" parent="1" vertex="1">
          <mxGeometry x="170" y="450" width="390" height="80" as="geometry" />
        </mxCell>
        <mxCell id="QshrlUQndgBQl6B-oCbw-10" value="&lt;b&gt;Needs&lt;br&gt;&lt;br&gt;- &lt;/b&gt;card set&lt;br&gt;- title image?&lt;br&gt;- how to save&amp;nbsp; &amp;nbsp; &amp;nbsp; matched cards (card-level state or higher?)&lt;br&gt;- persistence or new game on full page reload&lt;br&gt;- how to indicate incorrect&lt;br&gt;- penalty for incorrect?&lt;br&gt;- possible to game over?&lt;br&gt;- HOW TO RANDOMLY GEN CARD LAYOUT (array randomization?)" style="rounded=0;whiteSpace=wrap;html=1;align=left;verticalAlign=top;" parent="1" vertex="1">
          <mxGeometry x="30" y="30" width="120" height="500" as="geometry" />
        </mxCell>
        <mxCell id="QshrlUQndgBQl6B-oCbw-11" value="&lt;b&gt;Header&lt;/b&gt;&lt;br&gt;&lt;br&gt;- Title&lt;br&gt;- start new game button&lt;br&gt;-score?&lt;br&gt;-timer?&lt;br&gt;" style="rounded=0;whiteSpace=wrap;html=1;align=left;verticalAlign=top;" parent="1" vertex="1">
          <mxGeometry x="170" y="200" width="120" height="170" as="geometry" />
        </mxCell>
        <mxCell id="QshrlUQndgBQl6B-oCbw-12" value="Card Display&lt;br&gt;&lt;br&gt;&lt;span style=&quot;font-weight: normal;&quot;&gt;- 4 x 4?&lt;/span&gt;" style="rounded=0;whiteSpace=wrap;html=1;verticalAlign=top;align=left;fontStyle=1" parent="1" vertex="1">
          <mxGeometry x="350" y="200" width="120" height="60" as="geometry" />
        </mxCell>
        <mxCell id="QshrlUQndgBQl6B-oCbw-13" value="Cards&lt;br&gt;&lt;br&gt;&lt;span style=&quot;font-weight: normal;&quot;&gt;- 4 sets of four cards for easier matching?&lt;/span&gt;" style="rounded=0;whiteSpace=wrap;html=1;fontStyle=1;align=left;verticalAlign=top;" parent="1" vertex="1">
          <mxGeometry x="440" y="280" width="120" height="80" as="geometry" />
        </mxCell>
        <mxCell id="QshrlUQndgBQl6B-oCbw-14" value="App" style="rounded=0;whiteSpace=wrap;html=1;fontStyle=1" parent="1" vertex="1">
          <mxGeometry x="260" y="30" width="120" height="60" as="geometry" />
        </mxCell>
        <mxCell id="QshrlUQndgBQl6B-oCbw-18" value="" style="endArrow=none;html=1;rounded=0;entryX=0.5;entryY=1;entryDx=0;entryDy=0;exitX=0.5;exitY=0;exitDx=0;exitDy=0;" parent="1" source="QshrlUQndgBQl6B-oCbw-1" target="QshrlUQndgBQl6B-oCbw-14" edge="1">
          <mxGeometry width="50" height="50" relative="1" as="geometry">
            <mxPoint x="290" y="300" as="sourcePoint" />
            <mxPoint x="340" y="250" as="targetPoint" />
          </mxGeometry>
        </mxCell>
      </root>
    </mxGraphModel>
  </diagram>
  <diagram id="gKh1GBUfkM918t1arkbE" name="Page-2">
    <mxGraphModel dx="609" dy="581" grid="1" gridSize="10" guides="1" tooltips="1" connect="1" arrows="1" fold="1" page="1" pageScale="1" pageWidth="850" pageHeight="1100" math="0" shadow="0">
      <root>
        <mxCell id="0" />
        <mxCell id="1" parent="0" />
        <mxCell id="NPfm01-MCwtwjnp802Ow-2" value="" style="rounded=0;whiteSpace=wrap;html=1;" vertex="1" parent="1">
          <mxGeometry x="40" y="40" width="560" height="520" as="geometry" />
        </mxCell>
        <mxCell id="NPfm01-MCwtwjnp802Ow-3" value="" style="rounded=0;whiteSpace=wrap;html=1;" vertex="1" parent="1">
          <mxGeometry x="170" y="140" width="430" height="420" as="geometry" />
        </mxCell>
        <mxCell id="NPfm01-MCwtwjnp802Ow-4" value="" style="rounded=0;whiteSpace=wrap;html=1;" vertex="1" parent="1">
          <mxGeometry x="40" y="140" width="130" height="420" as="geometry" />
        </mxCell>
        <mxCell id="NPfm01-MCwtwjnp802Ow-64" value="" style="rounded=0;whiteSpace=wrap;html=1;" vertex="1" parent="1">
          <mxGeometry x="485" y="270" width="60" height="70" as="geometry" />
        </mxCell>
        <mxCell id="NPfm01-MCwtwjnp802Ow-65" value="" style="rounded=0;whiteSpace=wrap;html=1;" vertex="1" parent="1">
          <mxGeometry x="395" y="360" width="60" height="70" as="geometry" />
        </mxCell>
        <mxCell id="NPfm01-MCwtwjnp802Ow-66" value="" style="rounded=0;whiteSpace=wrap;html=1;" vertex="1" parent="1">
          <mxGeometry x="485" y="360" width="60" height="70" as="geometry" />
        </mxCell>
        <mxCell id="NPfm01-MCwtwjnp802Ow-67" value="" style="rounded=0;whiteSpace=wrap;html=1;" vertex="1" parent="1">
          <mxGeometry x="215" y="460" width="60" height="70" as="geometry" />
        </mxCell>
        <mxCell id="NPfm01-MCwtwjnp802Ow-68" value="" style="rounded=0;whiteSpace=wrap;html=1;" vertex="1" parent="1">
          <mxGeometry x="305" y="460" width="60" height="70" as="geometry" />
        </mxCell>
        <mxCell id="NPfm01-MCwtwjnp802Ow-69" value="" style="rounded=0;whiteSpace=wrap;html=1;" vertex="1" parent="1">
          <mxGeometry x="395" y="460" width="60" height="70" as="geometry" />
        </mxCell>
        <mxCell id="NPfm01-MCwtwjnp802Ow-70" value="" style="rounded=0;whiteSpace=wrap;html=1;" vertex="1" parent="1">
          <mxGeometry x="485" y="460" width="60" height="70" as="geometry" />
        </mxCell>
        <mxCell id="NPfm01-MCwtwjnp802Ow-71" value="" style="rounded=0;whiteSpace=wrap;html=1;" vertex="1" parent="1">
          <mxGeometry x="215" y="360" width="60" height="70" as="geometry" />
        </mxCell>
        <mxCell id="NPfm01-MCwtwjnp802Ow-72" value="" style="rounded=0;whiteSpace=wrap;html=1;" vertex="1" parent="1">
          <mxGeometry x="215" y="270" width="60" height="70" as="geometry" />
        </mxCell>
        <mxCell id="NPfm01-MCwtwjnp802Ow-73" value="" style="rounded=0;whiteSpace=wrap;html=1;" vertex="1" parent="1">
          <mxGeometry x="215" y="180" width="60" height="70" as="geometry" />
        </mxCell>
        <mxCell id="NPfm01-MCwtwjnp802Ow-74" value="" style="rounded=0;whiteSpace=wrap;html=1;" vertex="1" parent="1">
          <mxGeometry x="305" y="180" width="60" height="70" as="geometry" />
        </mxCell>
        <mxCell id="NPfm01-MCwtwjnp802Ow-75" value="" style="rounded=0;whiteSpace=wrap;html=1;" vertex="1" parent="1">
          <mxGeometry x="305" y="270" width="60" height="70" as="geometry" />
        </mxCell>
        <mxCell id="NPfm01-MCwtwjnp802Ow-76" value="" style="rounded=0;whiteSpace=wrap;html=1;" vertex="1" parent="1">
          <mxGeometry x="305" y="360" width="60" height="70" as="geometry" />
        </mxCell>
        <mxCell id="NPfm01-MCwtwjnp802Ow-77" value="" style="rounded=0;whiteSpace=wrap;html=1;" vertex="1" parent="1">
          <mxGeometry x="395" y="270" width="60" height="70" as="geometry" />
        </mxCell>
        <mxCell id="NPfm01-MCwtwjnp802Ow-78" value="" style="rounded=0;whiteSpace=wrap;html=1;" vertex="1" parent="1">
          <mxGeometry x="395" y="180" width="60" height="70" as="geometry" />
        </mxCell>
        <mxCell id="NPfm01-MCwtwjnp802Ow-79" value="" style="rounded=0;whiteSpace=wrap;html=1;" vertex="1" parent="1">
          <mxGeometry x="485" y="180" width="60" height="70" as="geometry" />
        </mxCell>
        <mxCell id="NPfm01-MCwtwjnp802Ow-86" value="" style="shape=switch;whiteSpace=wrap;html=1;" vertex="1" parent="1">
          <mxGeometry x="310" y="275" width="50" height="60" as="geometry" />
        </mxCell>
        <mxCell id="NPfm01-MCwtwjnp802Ow-87" value="" style="shape=switch;whiteSpace=wrap;html=1;" vertex="1" parent="1">
          <mxGeometry x="400" y="365" width="50" height="60" as="geometry" />
        </mxCell>
        <mxCell id="NPfm01-MCwtwjnp802Ow-88" value="" style="shape=switch;whiteSpace=wrap;html=1;" vertex="1" parent="1">
          <mxGeometry x="400" y="185" width="50" height="60" as="geometry" />
        </mxCell>
        <mxCell id="NPfm01-MCwtwjnp802Ow-89" value="" style="shape=switch;whiteSpace=wrap;html=1;" vertex="1" parent="1">
          <mxGeometry x="220" y="465" width="50" height="60" as="geometry" />
        </mxCell>
        <mxCell id="NPfm01-MCwtwjnp802Ow-90" value="" style="shape=sumEllipse;perimeter=ellipsePerimeter;whiteSpace=wrap;html=1;backgroundOutline=1;" vertex="1" parent="1">
          <mxGeometry x="222.5" y="280" width="45" height="50" as="geometry" />
        </mxCell>
        <mxCell id="NPfm01-MCwtwjnp802Ow-91" value="" style="shape=sumEllipse;perimeter=ellipsePerimeter;whiteSpace=wrap;html=1;backgroundOutline=1;" vertex="1" parent="1">
          <mxGeometry x="403" y="280" width="45" height="50" as="geometry" />
        </mxCell>
        <mxCell id="NPfm01-MCwtwjnp802Ow-92" value="" style="shape=sumEllipse;perimeter=ellipsePerimeter;whiteSpace=wrap;html=1;backgroundOutline=1;" vertex="1" parent="1">
          <mxGeometry x="492.5" y="370" width="45" height="50" as="geometry" />
        </mxCell>
        <mxCell id="NPfm01-MCwtwjnp802Ow-93" value="" style="shape=sumEllipse;perimeter=ellipsePerimeter;whiteSpace=wrap;html=1;backgroundOutline=1;" vertex="1" parent="1">
          <mxGeometry x="312.5" y="470" width="45" height="50" as="geometry" />
        </mxCell>
        <mxCell id="NPfm01-MCwtwjnp802Ow-94" value="" style="shape=collate;whiteSpace=wrap;html=1;" vertex="1" parent="1">
          <mxGeometry x="220" y="370" width="50" height="50" as="geometry" />
        </mxCell>
        <mxCell id="NPfm01-MCwtwjnp802Ow-95" value="" style="shape=collate;whiteSpace=wrap;html=1;" vertex="1" parent="1">
          <mxGeometry x="310" y="370" width="50" height="50" as="geometry" />
        </mxCell>
        <mxCell id="NPfm01-MCwtwjnp802Ow-96" value="" style="shape=collate;whiteSpace=wrap;html=1;" vertex="1" parent="1">
          <mxGeometry x="490" y="190" width="50" height="50" as="geometry" />
        </mxCell>
        <mxCell id="NPfm01-MCwtwjnp802Ow-97" value="" style="shape=collate;whiteSpace=wrap;html=1;" vertex="1" parent="1">
          <mxGeometry x="310" y="190" width="50" height="50" as="geometry" />
        </mxCell>
        <mxCell id="NPfm01-MCwtwjnp802Ow-101" value="" style="shape=sortShape;perimeter=rhombusPerimeter;whiteSpace=wrap;html=1;" vertex="1" parent="1">
          <mxGeometry x="220" y="190" width="50" height="50" as="geometry" />
        </mxCell>
        <mxCell id="NPfm01-MCwtwjnp802Ow-102" value="" style="shape=sortShape;perimeter=rhombusPerimeter;whiteSpace=wrap;html=1;" vertex="1" parent="1">
          <mxGeometry x="490" y="280" width="50" height="50" as="geometry" />
        </mxCell>
        <mxCell id="NPfm01-MCwtwjnp802Ow-103" value="" style="shape=sortShape;perimeter=rhombusPerimeter;whiteSpace=wrap;html=1;" vertex="1" parent="1">
          <mxGeometry x="400" y="470" width="50" height="50" as="geometry" />
        </mxCell>
        <mxCell id="NPfm01-MCwtwjnp802Ow-104" value="" style="shape=sortShape;perimeter=rhombusPerimeter;whiteSpace=wrap;html=1;" vertex="1" parent="1">
          <mxGeometry x="490" y="470" width="50" height="50" as="geometry" />
        </mxCell>
        <mxCell id="NPfm01-MCwtwjnp802Ow-105" value="New Game" style="rounded=0;whiteSpace=wrap;html=1;" vertex="1" parent="1">
          <mxGeometry x="50" y="160" width="110" height="30" as="geometry" />
        </mxCell>
        <mxCell id="NPfm01-MCwtwjnp802Ow-106" value="Guesses Remaining:&lt;br&gt;&lt;font style=&quot;font-size: 30px;&quot;&gt;10&lt;/font&gt;&lt;br style=&quot;font-size: 13px;&quot;&gt;" style="rounded=0;whiteSpace=wrap;html=1;strokeColor=none;" vertex="1" parent="1">
          <mxGeometry x="50" y="200" width="110" height="80" as="geometry" />
        </mxCell>
        <mxCell id="NPfm01-MCwtwjnp802Ow-107" value="Successful Matches:&lt;br&gt;&lt;span style=&quot;font-size: 30px;&quot;&gt;4&lt;/span&gt;" style="rounded=0;whiteSpace=wrap;html=1;strokeColor=none;" vertex="1" parent="1">
          <mxGeometry x="50" y="280" width="110" height="80" as="geometry" />
        </mxCell>
      </root>
    </mxGraphModel>
  </diagram>
</mxfile>
